<svg height="30" id="Layer_1" version="1.1" width="30" xml:space="preserve" xmlns="http://www.w3.org/2000/svg"><path d="M23.22 16.815c-.825-4.154 3.117-6.59 3.117-6.59s-1.537-2.22-4.117-2.79c-2.58-.574-3.871.139-5.159.68-1.29.536-1.934.536-1.934.536-1.861 0-3.222-1.97-6.771-1.07-2.441.616-5.015 3.436-5.48 6.804-.466 3.367.538 7.664 2.472 10.994 1.936 3.332 3.906 4.586 5.303 4.621s2.794-1.002 4.478-1.256c1.684-.246 2.718.613 4.37 1.078 1.648.465 2.224.031 4.117-1.58 1.9-1.611 3.623-6.236 3.623-6.236s-3.193-1.032-4.019-5.191zM19.568 4.747C21.396 2.882 20.775.001 20.775.001s-2.566.447-4.285 2.238c-1.721 1.793-1.436 4.619-1.436 4.619s2.684-.248 4.514-2.111z"/></svg>